<svg id="Group_2671" data-name="Group 2671" xmlns="http://www.w3.org/2000/svg" width="55.756" height="48.797" viewBox="0 0 55.756 48.797">
  <path id="Path_796" data-name="Path 796" d="M-359.793,460.434c.064,4.259-.328,8.244-.572,12.237-.07,1.141-.484,1.659-1.694,1.642-3.515-.05-7.031-.025-10.547-.013-.812,0-1.524-.131-1.513-1.133.06-5.706-.439-11.442.475-17.107.975-6.044,5.647-8.22,11.171-5.357a58.919,58.919,0,0,1,6.622,4.547,1.948,1.948,0,0,0,2.445.16c1.342-.781,2.751-1.449,4.138-2.151,2.088-1.057,4.02-.616,4.915,1.111.913,1.759.157,3.571-1.949,4.629-2.171,1.091-4.384,2.1-6.513,3.268a3.939,3.939,0,0,1-4.739-.336C-358.2,461.433-358.908,461.022-359.793,460.434Z" transform="translate(374.202 -425.517)" fill="#dcb162"/>
  <path id="Path_797" data-name="Path 797" d="M-265.71,463.673c-1.881,1.613-4.141,1.97-6.159,2.861-.932.411-1.891.764-2.847,1.116a3.193,3.193,0,0,1-4.256-1.688,3.237,3.237,0,0,1,1.873-4.325c1.841-.755,3.713-1.438,5.589-2.1a5.021,5.021,0,0,0,2.04-1.336c1.771-1.886,3.726-3.621,5.335-5.634,1.918-2.4,7.983-2.47,10.082-.864,1.447,1.107,1.837,2.7,2.121,4.345a67.592,67.592,0,0,1,.6,11.972c-.01,1.856-.03,3.711-.035,5.567,0,1.015-.423,1.5-1.507,1.483q-5.42-.058-10.84,0c-1.024.01-1.332-.441-1.409-1.4C-265.379,470.405-265.652,467.148-265.71,463.673Z" transform="translate(307.072 -426.33)" fill="#dcb162"/>
  <path id="Path_798" data-name="Path 798" d="M-304.057,367.784a11.481,11.481,0,0,1,8.5,3.195,5.651,5.651,0,0,1,.027,8.338,10.749,10.749,0,0,1-8.192,3.193,8.59,8.59,0,0,0-4.434,1.055,23.516,23.516,0,0,1-2.809,1.2c-.458.176-.974.266-1.31-.255a.912.912,0,0,1,.17-1.195,2.334,2.334,0,0,0,.173-.235c1.274-1.815,1.274-1.815-.383-3.337-2.971-2.73-2.985-6.462.03-9.163A11.716,11.716,0,0,1-304.057,367.784Zm1.315,7.387c-.138-.886-.635-1.41-1.473-1.366a1.289,1.289,0,0,0-1.284,1.343,1.3,1.3,0,0,0,1.381,1.388A1.353,1.353,0,0,0-302.742,375.171Zm3.807,1.4c.833-.2,1.359-.613,1.3-1.512a1.25,1.25,0,0,0-1.345-1.251,1.264,1.264,0,0,0-1.344,1.4C-300.3,376.1-299.691,376.439-298.935,376.569Zm-8.975-1.328a1.342,1.342,0,0,0-1.368-1.431,1.276,1.276,0,0,0-1.34,1.4,1.225,1.225,0,0,0,1.262,1.317A1.337,1.337,0,0,0-307.91,375.24Z" transform="translate(332.031 -367.784)" fill="#dcb162"/>
  <path id="Path_799" data-name="Path 799" d="M-228.383,397a7.087,7.087,0,0,1,6.979,7.009,7.1,7.1,0,0,1-7.223,7.061,7.056,7.056,0,0,1-6.968-7.013A7.057,7.057,0,0,1-228.383,397Z" transform="translate(276.222 -388.435)" fill="#dcb162"/>
  <path id="Path_800" data-name="Path 800" d="M-363.735,411.069a7.1,7.1,0,0,1-7.093-7.038,7.09,7.09,0,0,1,7.1-7.032,7.029,7.029,0,0,1,7.076,7.035A7.037,7.037,0,0,1-363.735,411.069Z" transform="translate(371.817 -388.436)" fill="#dcb162"/>
</svg>
