<svg xmlns="http://www.w3.org/2000/svg" width="58.169" height="54.949" viewBox="0 0 58.169 54.949">
  <g id="Group_2670" data-name="Group 2670" transform="translate(0 0)">
    <path id="Path_794" data-name="Path 794" d="M-383.785,358.206c-5.555-2.984-10.866-5.785-16.116-8.7a2.953,2.953,0,0,0-3.222-.007c-5.3,2.812-10.665,5.515-16.229,8.372.848-4.723,1.348-9.305,2.549-13.7,1.192-4.359.475-7.5-3.187-10.425-3.552-2.841-6.54-6.388-9.987-9.835,5.733-.787,11.169-1.621,16.629-2.241,2.187-.248,3.6-.884,4.593-3.1,2.308-5.121,5-10.071,7.647-15.324,1.087,2.233,2.091,4.278,3.08,6.331,1.639,3.4,3.322,6.787,4.875,10.23a2.965,2.965,0,0,0,2.664,1.86c5.877.834,11.737,1.786,17.777,2.722-1.078,1.117-2.054,2.12-3.019,3.133-.641.672-1.121.026-1.632-.2a13.228,13.228,0,0,0-18.768,12.655,13.147,13.147,0,0,0,9.888,12.11c1.3.312,1.712.819,1.787,2.052A40.576,40.576,0,0,0-383.785,358.206Z" transform="translate(429.977 -303.257)" fill="#dcb162"/>
    <path id="Path_795" data-name="Path 795" d="M-311.251,380.815a11.075,11.075,0,0,1-11.13,11.1,11.134,11.134,0,0,1-10.987-11.274,11.119,11.119,0,0,1,11.066-11A11.076,11.076,0,0,1-311.251,380.815Zm-11.837,2.693c-1.14-1.007-2.2-1.954-3.273-2.885a1.588,1.588,0,0,0-2.462-.024,1.634,1.634,0,0,0,.28,2.578c1.208,1.066,2.4,2.154,3.619,3.2,1.7,1.462,3.029,1.291,4.318-.582,1.685-2.447,3.326-4.924,5-7.379.683-1,1.15-2.045-.066-2.914-1.277-.913-2.049.016-2.708.99C-319.938,378.8-321.48,381.11-323.088,383.508Z" transform="translate(369.42 -344.868)" fill="#dcb162"/>
  </g>
</svg>
