<svg xmlns="http://www.w3.org/2000/svg" width="32.295" height="32.456" viewBox="0 0 32.295 32.456">
  <g id="Group_2688" data-name="Group 2688" transform="translate(725.135 -1123.635)">
    <path id="Path_812" data-name="Path 812" d="M-700.139,1126.081l-1.22,1.22c-.376.376-.753.75-1.126,1.129a.133.133,0,0,1-.186.032,15.385,15.385,0,0,0-3.4-1.24,13.33,13.33,0,0,0-1.79-.286,12.057,12.057,0,0,0-1.992-.016,12.818,12.818,0,0,0-3.955.931,12.921,12.921,0,0,0-3.619,2.241,13.007,13.007,0,0,0-3.275,4.366,12.689,12.689,0,0,0-1.018,3.33,13.1,13.1,0,0,0-.146,2.808,12.769,12.769,0,0,0,1.5,5.349,12.857,12.857,0,0,0,1.761,2.522,13.086,13.086,0,0,0,3.56,2.825,12.815,12.815,0,0,0,3.259,1.228,12.794,12.794,0,0,0,3.36.314,12.457,12.457,0,0,0,3.106-.518,12.988,12.988,0,0,0,4.326-2.254,13.149,13.149,0,0,0,1.911-1.845,13.176,13.176,0,0,0,1.944-3.052,12.425,12.425,0,0,0,.935-2.946c.038-.206.078-.412.1-.621.008-.08.04-.116.136-.116q1.5.007,3.006,0c.106,0,.126.031.116.128-.058.542-.14,1.081-.251,1.615a16.231,16.231,0,0,1-1.546,4.307,16.073,16.073,0,0,1-2.275,3.256,15.974,15.974,0,0,1-4.175,3.312,15.944,15.944,0,0,1-4.7,1.7,16.214,16.214,0,0,1-2.006.255,16.341,16.341,0,0,1-1.992.016,16.135,16.135,0,0,1-3.768-.662,16.079,16.079,0,0,1-3.155-1.334,16.314,16.314,0,0,1-2.671-1.849,16.362,16.362,0,0,1-2.044-2.074,16.226,16.226,0,0,1-2.349-3.825,16.089,16.089,0,0,1-.952-2.89,16.189,16.189,0,0,1-.336-2.149,15.544,15.544,0,0,1-.043-2.3,16.621,16.621,0,0,1,.357-2.6,16.1,16.1,0,0,1,.927-2.886,16.05,16.05,0,0,1,1.707-3.03,16.69,16.69,0,0,1,1.637-1.95,16.228,16.228,0,0,1,4.758-3.377,15.756,15.756,0,0,1,3.336-1.131,15.712,15.712,0,0,1,1.9-.3,15.557,15.557,0,0,1,2.21-.064c.514.026,1.026.063,1.535.131a16.3,16.3,0,0,1,2.165.439,19.181,19.181,0,0,1,3.662,1.431c.247.126.49.26.734.392A.339.339,0,0,1-700.139,1126.081Z" transform="translate(0 0)" fill="#dcb162"/>
    <path id="Path_813" data-name="Path 813" d="M-517.083,1276.393c.034.028.047.037.058.048l.06.06q2.9,2.9,5.789,5.792c.075.075.113.083.195,0q1.81-1.74,3.627-3.474l2.17-2.076,2.812-2.69,2.206-2.109,2.83-2.706,1.31-1.251c.034-.033.053-.058.1-.008q1.06,1.09,2.126,2.175c.017.017.033.036.051.052.047.042.052.075,0,.125q-1.062,1.01-2.12,2.024c-.556.533-1.109,1.07-1.664,1.6q-1.5,1.436-2.992,2.871l-2.44,2.34-2.351,2.257-3,2.879-2.362,2.264c-.114.109-.23.217-.342.329-.042.042-.074.059-.114,0a.278.278,0,0,0-.034-.035q-4.04-4.04-8.082-8.077c-.086-.086-.085-.124,0-.208q1.056-1.044,2.1-2.1A.6.6,0,0,0-517.083,1276.393Z" transform="translate(-199.145 -139.637)" fill="#dcb162"/>
  </g>
</svg>
