<svg id="Group_2684" data-name="Group 2684" xmlns="http://www.w3.org/2000/svg" width="31.098" height="31.253" viewBox="0 0 31.098 31.253">
  <path id="Path_812" data-name="Path 812" d="M-701.065,1125.99l-1.175,1.175c-.362.362-.725.722-1.084,1.087a.128.128,0,0,1-.179.031,14.82,14.82,0,0,0-3.27-1.194,12.828,12.828,0,0,0-1.723-.276,11.592,11.592,0,0,0-1.918-.015,12.34,12.34,0,0,0-3.808.9,12.442,12.442,0,0,0-3.485,2.158,12.525,12.525,0,0,0-3.153,4.2,12.225,12.225,0,0,0-.98,3.207,12.616,12.616,0,0,0-.141,2.7,12.3,12.3,0,0,0,1.443,5.151,12.382,12.382,0,0,0,1.7,2.428,12.6,12.6,0,0,0,3.428,2.72,12.344,12.344,0,0,0,3.139,1.183,12.328,12.328,0,0,0,3.235.3,11.992,11.992,0,0,0,2.991-.5,12.506,12.506,0,0,0,4.166-2.171,12.663,12.663,0,0,0,1.84-1.777,12.691,12.691,0,0,0,1.872-2.939,11.964,11.964,0,0,0,.9-2.837c.036-.2.075-.4.1-.6.008-.078.039-.112.131-.112q1.447.007,2.894,0c.1,0,.121.03.111.123-.056.522-.135,1.041-.242,1.555a15.629,15.629,0,0,1-1.489,4.147,15.478,15.478,0,0,1-2.191,3.136,15.387,15.387,0,0,1-4.02,3.189,15.357,15.357,0,0,1-4.53,1.636,15.586,15.586,0,0,1-1.932.245,15.746,15.746,0,0,1-1.919.016,15.55,15.55,0,0,1-3.629-.637,15.494,15.494,0,0,1-3.039-1.284,15.709,15.709,0,0,1-2.572-1.78,15.758,15.758,0,0,1-1.969-2,15.623,15.623,0,0,1-2.262-3.683,15.487,15.487,0,0,1-.917-2.783,15.607,15.607,0,0,1-.323-2.07,14.969,14.969,0,0,1-.041-2.21,16.01,16.01,0,0,1,.344-2.5,15.521,15.521,0,0,1,.893-2.779,15.459,15.459,0,0,1,1.644-2.917,16.058,16.058,0,0,1,1.576-1.878,15.629,15.629,0,0,1,4.582-3.252A15.179,15.179,0,0,1-712.86,1124a15.144,15.144,0,0,1,1.827-.292,14.965,14.965,0,0,1,2.128-.061c.495.025.988.061,1.479.126a15.7,15.7,0,0,1,2.084.423,18.475,18.475,0,0,1,3.527,1.378c.238.121.471.251.707.377A.316.316,0,0,1-701.065,1125.99Z" transform="translate(725.135 -1123.635)" fill="#fff"/>
  <path id="Path_813" data-name="Path 813" d="M-517.165,1276.08c.033.027.045.036.056.046l.058.058q2.788,2.788,5.574,5.578c.072.072.109.08.188,0q1.743-1.676,3.493-3.345l2.09-2,2.708-2.59,2.124-2.031,2.725-2.606,1.262-1.2c.033-.031.051-.056.1-.007q1.021,1.049,2.047,2.094c.016.017.032.035.049.05.046.041.05.072,0,.12q-1.023.972-2.041,1.949c-.535.513-1.068,1.03-1.6,1.544q-1.44,1.383-2.881,2.765l-2.349,2.253-2.264,2.173-2.89,2.772-2.274,2.18c-.11.105-.221.209-.329.317-.04.04-.071.057-.11,0a.264.264,0,0,0-.033-.033q-3.89-3.89-7.782-7.778c-.083-.083-.081-.119,0-.2q1.017-1,2.023-2.02A.583.583,0,0,0-517.165,1276.08Z" transform="translate(525.743 -1263.445)" fill="#fff"/>
</svg>
