<svg xmlns="http://www.w3.org/2000/svg" width="57.947" height="63.712" viewBox="0 0 57.947 63.712">
  <path id="Path_793" data-name="Path 793" d="M-453.624,190.29c.6,0,1.048.036,1.485-.009.526-.055.626.168.619.644-.025,1.661-.038,3.324.006,4.984.016.6-.195.694-.731.687-2.215-.029-4.43-.013-6.646-.013-6.847,0-13.695-.01-20.542.018-.673,0-.847-.165-.825-.829.052-1.584.049-3.172,0-4.757-.019-.62.185-.8.765-.737.39.042.789.008,1.391.008a2.38,2.38,0,0,1-.927-2.158,1.9,1.9,0,0,1,2.062-2.067,1.749,1.749,0,0,0,1.412-.608,9.364,9.364,0,0,1,4.757-2.284,14.075,14.075,0,0,1,2.3-.392c.6-.038.656-.3.654-.8-.016-5.412-.011-10.824-.011-16.236,0-5.463-.011-10.926.015-16.388,0-.629-.159-.784-.784-.781-4.858.027-9.717.015-14.576.015-.882,0-.89,0-.661.814q2.685,9.489,5.378,18.976a9.616,9.616,0,0,1,.414,5.329,7.727,7.727,0,0,1-5.983,5.563,8.972,8.972,0,0,1-9.444-3.159,6.955,6.955,0,0,1-1.105-6.172c2.164-7.917,4.423-15.808,6.671-23.7.407-1.43.658-1.773,2.311-1.623,1.823.165,3.672.039,5.51.039,3.826,0,7.653-.015,11.479.015.61,0,.8-.122.8-.768a1.36,1.36,0,0,0-.82-1.448,2.936,2.936,0,0,1-1.786-3.018,8.524,8.524,0,0,1,1.449-4.827,3.628,3.628,0,0,1,6.04-.2,7.838,7.838,0,0,1,1.519,6.2c-.112,1-1.119,1.554-1.992,2.035a2,2,0,0,0-.466,1.9c.165.212.424.105.638.106,3.373.007,6.747.028,10.12,0,2.565-.024,5.131.125,7.7-.091.735-.062,1.186.341,1.463,1.3q1.22,4.192,2.4,8.4,2.138,7.572,4.266,15.148c1.4,4.962-1.373,8.391-5.107,9.683a9.047,9.047,0,0,1-10.423-3.34,7.688,7.688,0,0,1-.68-6.533q2.8-9.965,5.642-19.92c.164-.574.106-.713-.526-.71q-7.4.039-14.8,0c-.623,0-.731.188-.73.757q.024,16.349,0,32.7c0,.494.1.683.63.743a15.559,15.559,0,0,1,5.284,1.42,5.855,5.855,0,0,1,2.094,1.57.613.613,0,0,0,.565.287c1-.06,2.006.042,2.413,1.111A2.626,2.626,0,0,1-453.624,190.29Zm-32.718-40.747c-1.953,6.921-3.832,13.609-5.74,20.29-.181.633.166.523.515.523,3.468,0,6.937-.022,10.4.011.659.006.656-.176.5-.714-1.313-4.581-2.6-9.17-3.893-13.757C-485.131,153.846-485.707,151.8-486.342,149.543Zm40.953.138a1.568,1.568,0,0,0-.117.215q-2.848,10.031-5.7,20.061c-.132.463.129.422.43.421,1.734,0,3.468.009,5.2.011,1.981,0,3.963,0,6.03,0Z" transform="translate(494.881 -132.89)" fill="#dcb162"/>
</svg>
