<svg xmlns="http://www.w3.org/2000/svg" width="131" height="19" viewBox="0 0 131 19">
  <g id="Group_2712" data-name="Group 2712" transform="translate(-613 -49)">
    <path id="Polygon_136" data-name="Polygon 136" d="M10,0l2.5,7.066,7.5.192-5.955,4.558L16.18,19,10,14.751,3.82,19l2.135-7.184L0,7.257l7.5-.192Z" transform="translate(613 49)" fill="#fbbf00"/>
    <path id="Polygon_137" data-name="Polygon 137" d="M10,0l2.5,7.066,7.5.192-5.955,4.558L16.18,19,10,14.751,3.82,19l2.135-7.184L0,7.257l7.5-.192Z" transform="translate(641 49)" fill="#fbbf00"/>
    <path id="Polygon_138" data-name="Polygon 138" d="M10,0l2.5,7.066,7.5.192-5.955,4.558L16.18,19,10,14.751,3.82,19l2.135-7.184L0,7.257l7.5-.192Z" transform="translate(668 49)" fill="#fbbf00"/>
    <path id="Polygon_139" data-name="Polygon 139" d="M10,0l2.5,7.066,7.5.192-5.955,4.558L16.18,19,10,14.751,3.82,19l2.135-7.184L0,7.257l7.5-.192Z" transform="translate(696 49)" fill="#fbbf00"/>
    <path id="Polygon_140" data-name="Polygon 140" d="M10.5,0l2.625,7.066L21,7.257l-6.253,4.558L16.989,19,10.5,14.751,4.011,19l2.242-7.184L0,7.257l7.875-.192Z" transform="translate(723 49)" fill="#fbbf00"/>
  </g>
</svg>
