<svg id="checked_709510" xmlns="http://www.w3.org/2000/svg" width="11.334" height="11.334" viewBox="0 0 11.334 11.334">
  <g id="Group_3" data-name="Group 3" transform="translate(2.691 1.424)">
    <g id="Group_2" data-name="Group 2">
      <path id="Path_1" data-name="Path 1" d="M129.886,64.453a.427.427,0,0,0-.6,0l-5.124,5.111-1.849-2.008a.427.427,0,1,0-.628.579l2.15,2.335a.427.427,0,0,0,.305.138h.009a.428.428,0,0,0,.3-.125l5.439-5.425A.427.427,0,0,0,129.886,64.453Z" transform="translate(-121.568 -64.327)" fill="#0f0f0f"/>
    </g>
  </g>
  <g id="Group_5" data-name="Group 5">
    <g id="Group_4" data-name="Group 4">
      <path id="Path_2" data-name="Path 2" d="M10.907,5.24a.427.427,0,0,0-.427.427A4.813,4.813,0,1,1,5.667.854a.427.427,0,1,0,0-.854,5.667,5.667,0,1,0,5.667,5.667A.427.427,0,0,0,10.907,5.24Z" fill="#0f0f0f"/>
    </g>
  </g>
</svg>
