<svg xmlns="http://www.w3.org/2000/svg" width="53.654" height="31" viewBox="0 0 53.654 31">
  <path id="email_2989993" d="M53.885,24H16.923a4.783,4.783,0,0,0-4.769,4.769v1.788a1.192,1.192,0,0,0,2.385,0V28.769a2.992,2.992,0,0,1,.119-.715L28.012,39.5,14.658,50.946a2.992,2.992,0,0,1-.119-.715V48.442a1.192,1.192,0,0,0-2.385,0v1.788A4.783,4.783,0,0,0,16.923,55H53.885a4.783,4.783,0,0,0,4.769-4.769V28.769A4.783,4.783,0,0,0,53.885,24ZM16.446,26.444a1.162,1.162,0,0,1,.477-.06H53.885a1.162,1.162,0,0,1,.477.06L36.179,42a1.254,1.254,0,0,1-1.55,0ZM53.885,52.615H16.923a1.162,1.162,0,0,1-.477-.06L29.86,41.05l3.219,2.8a3.47,3.47,0,0,0,4.65,0l3.219-2.8L54.362,52.556A1.162,1.162,0,0,1,53.885,52.615Zm2.385-2.385a2.992,2.992,0,0,1-.119.715L42.8,39.5,56.15,28.054a2.992,2.992,0,0,1,.119.715ZM8.577,36.519a1.2,1.2,0,0,1,1.192-1.192h7.154a1.192,1.192,0,0,1,0,2.385H9.769A1.2,1.2,0,0,1,8.577,36.519Zm8.346,7.154H6.192a1.192,1.192,0,1,1,0-2.385H16.923a1.192,1.192,0,1,1,0,2.385Z" transform="translate(-5 -24)" fill="#fff"/>
</svg>
