<svg xmlns="http://www.w3.org/2000/svg" width="52.972" height="48.793" viewBox="0 0 52.972 48.793">
  <g id="Group_2672" data-name="Group 2672" transform="translate(15.095 -6.656) rotate(17)">
    <path id="Path_801" data-name="Path 801" d="M1.3,0A19.229,19.229,0,0,0,3.966.393c2.813.373,5.629.723,8.444,1.08,1.182.15,2.365.3,3.548.442a.861.861,0,0,1,.857,1.136q-1.4,8.317-2.783,16.636c-.048.292-.1.413-.429.334a2.6,2.6,0,0,0-.853-.026c-.328.034-.4-.07-.348-.384.258-1.539.5-3.082.747-4.623q.529-3.281,1.06-6.561c.041-.253.061-.45-.271-.593a4.308,4.308,0,0,1-2.747-4.389c.008-.407-.1-.551-.495-.6Q8.27,2.566,5.849,2.238c-.32-.043-.3.126-.327.341A4.338,4.338,0,0,1,2.108,6.459c-.214.053-.266.137-.258.34q.166,4.157.321,8.315c.088,2.369.162,4.739.257,7.108.014.341-.109.451-.432.527-1.157.273-1.152.288-1.2-.906Q.537,14.585.269,7.327C.193,5.294.111,3.262,0,1.231A1.293,1.293,0,0,1,.492,0Z" transform="translate(22.767 0)" fill="#dcb162"/>
    <path id="Path_802" data-name="Path 802" d="M10.869,23.34a19.568,19.568,0,0,1-3.293-.391,7.229,7.229,0,0,0-3.2.155c-.3.084-.4.049-.486-.265Q1.979,15.619.035,8.407a.659.659,0,0,1,.021-.48C.538,6.839.992,5.738,1.49,4.657A6.76,6.76,0,0,1,5.9,1.024a.422.422,0,0,1,.609.326A2.163,2.163,0,0,0,9.4,3.108C12.3,2.584,15.1,1.7,17.919.9A24.91,24.91,0,0,1,21.327.028a2.691,2.691,0,0,1,3.149,2.49,3.56,3.56,0,0,0,1.476,2.9,2,2,0,0,1,.626,2.467,3.346,3.346,0,0,0,.389,3.622,1.98,1.98,0,0,1-.14,2.482,3.63,3.63,0,0,1-.34.437,1.4,1.4,0,0,0-.288,1.615,2.809,2.809,0,0,1-1.4,3.675,14.938,14.938,0,0,1-3.37,1.151c-2.589.764-5.18,1.522-7.809,2.14A14.352,14.352,0,0,1,10.869,23.34Z" transform="translate(13.8 22.065)" fill="#dcb162"/>
    <path id="Path_803" data-name="Path 803" d="M15.819,18.333a.812.812,0,0,1-.625.889c-3.267.952-6.538,1.891-9.8,2.851-.336.1-.351-.073-.409-.295Q3.067,14.533,1.146,7.29C.78,5.912.418,4.534.039,3.161c-.082-.3-.057-.418.288-.51C3.5,1.808,6.672.936,9.843.078c.781-.212,1.1-.01,1.311.79q2.283,8.526,4.569,17.051C15.766,18.081,15.8,18.245,15.819,18.333Zm-5.725-5.505a1.6,1.6,0,0,0-1.608,1.638,1.618,1.618,0,0,0,1.607,1.6,1.651,1.651,0,0,0,1.624-1.6A1.634,1.634,0,0,0,10.094,12.828Z" transform="translate(0 29.529)" fill="#dcb162"/>
    <path id="Path_804" data-name="Path 804" d="M5.085,1.858a6.367,6.367,0,0,1,.361,1.76,2.553,2.553,0,0,1-1.4,2.439c-.33.173-.364.329-.241.661.84,2.267,1.63,4.552,2.494,6.809a8.742,8.742,0,0,1,.62,3.085c0,.554,0,1.108,0,1.674-.294-.123-.593-.263-.9-.372a.385.385,0,0,1-.258-.337c-.553-3-1.958-5.706-3.015-8.53C1.908,6.815,1,4.61.127,2.391c-.3-.753-.079-1.14.713-1.307C2.516.732,4.194.39,5.866.025c.34-.074.437.007.455.351C6.383,1.529,6.4,1.529,5.085,1.858Z" transform="translate(14.497 3.141)" fill="#dcb162"/>
    <path id="Path_805" data-name="Path 805" d="M3.921,6.861A4.043,4.043,0,0,1,.943,5.677,3.185,3.185,0,0,1,1.465.736,4.169,4.169,0,0,1,6.152.707,3.2,3.2,0,0,1,7.563,4.113,3.5,3.5,0,0,1,4.794,6.737,2.682,2.682,0,0,1,3.921,6.861Z" transform="translate(26.583 13.746)" fill="#dcb162"/>
  </g>
</svg>
