<svg xmlns="http://www.w3.org/2000/svg" width="29.172" height="29.168" viewBox="0 0 29.172 29.168">
  <g id="Group_2747" data-name="Group 2747" transform="translate(0 0)">
    <path id="Path_815" data-name="Path 815" d="M-302.86,337.93A14.561,14.561,0,0,1-317.454,323.3a14.569,14.569,0,0,1,14.618-14.537,14.562,14.562,0,0,1,14.554,14.6A14.559,14.559,0,0,1-302.86,337.93Zm13.107-14.585A13.1,13.1,0,0,0-302.8,310.233a13.1,13.1,0,0,0-13.188,13.115,13.1,13.1,0,0,0,13.046,13.113A13.084,13.084,0,0,0-289.754,323.345Z" transform="translate(317.454 -308.762)" fill="#fff"/>
    <path id="Path_816" data-name="Path 816" d="M-289.511,363.108c-.208-2.659,1.722-3.379,3.357-3.463a1.518,1.518,0,0,1,1.478.788,7.627,7.627,0,0,1,1.09,3.616,2.653,2.653,0,0,1-.864,2.175.957.957,0,0,0-.221,1.259,9.881,9.881,0,0,0,4.825,4.74,1,1,0,0,0,1.265-.214,2.921,2.921,0,0,1,2.563-.812,7.9,7.9,0,0,1,2.722.831,1.688,1.688,0,0,1,1.028,1.637,6.264,6.264,0,0,1-.068,1.1,2.4,2.4,0,0,1-2.688,2.247,11.33,11.33,0,0,1-6.1-1.594,16.374,16.374,0,0,1-8.138-10.222A7.2,7.2,0,0,1-289.511,363.108Z" transform="translate(293.634 -352.157)" fill="#fff"/>
    <path id="Path_817" data-name="Path 817" d="M-230.023,341.665a10.746,10.746,0,0,1,10.085,10.4c.008.564-.162,1.021-.769,1.033s-.788-.432-.811-1a9.147,9.147,0,0,0-8.777-8.91c-.588-.025-1.138-.074-1.093-.832.043-.721.61-.71,1.145-.691C-230.17,341.667-230.1,341.665-230.023,341.665Z" transform="translate(244.05 -336.819)" fill="#fff"/>
    <path id="Path_818" data-name="Path 818" d="M-232.477,362.6a8,8,0,0,1,7.443,7.712c0,.53-.164.954-.744.984s-.788-.367-.834-.9c-.319-3.731-2.556-5.958-6.306-6.266-.533-.044-.855-.279-.835-.806s.388-.753.908-.723C-232.722,362.606-232.6,362.6-232.477,362.6Z" transform="translate(246.066 -354.677)" fill="#fff"/>
    <path id="Path_819" data-name="Path 819" d="M-235.123,383.681a5.233,5.233,0,0,1,4.847,5c.011.5-.166.892-.71.933-.58.045-.812-.314-.861-.861a3.623,3.623,0,0,0-3.436-3.544c-.556-.05-1.012-.19-.974-.822C-236.214,383.7-235.682,383.63-235.123,383.681Z" transform="translate(248.202 -372.649)" fill="#fff"/>
  </g>
</svg>
